<?xml version="1.0" encoding="utf-8"?>
<!-- Generator: Adobe Adobe Illustrator 29.2.0, SVG Export Plug-In . SVG Version: 6.00 Build 0)  -->
<svg version="1.1" xmlns="http://www.w3.org/2000/svg" xmlns:xlink="http://www.w3.org/1999/xlink" x="0px" y="0px" width="800px"
	 height="800px" viewBox="0 0 800 800" style="enable-background:new 0 0 800 800;" xml:space="preserve">
<style type="text/css">
	.st0{fill:#FFFFFF;}
</style>
<g id="Layer_2">
</g>
<g id="Layer_1">
	<g>
		<path class="st0" d="M596.37,104.97L413.5,104.8c-410.62,0-410.62,590.47,0,590.47l280.96-0.68v-214.5H422.88
			c-105.86,0-105.86-160.12,0-160.12l271.58-0.44V104.8l-61.59-0.07L613.41,117c-3.37-3.26-7.52-0.83-8.46-0.24
			c-3.7,2.3-5.34,4.94-3.59,7.76c4.88,7.87,35.65-18.53,48.8,2.76c7.31,11.81,3.02,25.55-16.75,37.77
			c-12.36,7.63-28.41,12.03-37.23-0.33l20.38-12.62c3.59,2.19,7.33,1.86,10.02,0.07c3.24-2.12,6.12-5.29,3.65-9.3
			c-5.62-9.1-34.16,18.59-47.79-3.39C573.47,124.98,585.17,111.9,596.37,104.97z M288.22,376.4l-19.86,12.29l-5.05-3.98
			c-1.64,7.87-4.53,12.16-13.39,17.65c-11.72,7.26-24.04,4.4-34.1-11.85l-21.39-34.56l21.41-13.23l18.96,30.64
			c4.83,7.81,8.95,8.7,14.09,5.51c6.17-3.83,5.12-9.91-0.33-18.68l-16.89-27.3l21.41-13.23L288.22,376.4L288.22,376.4z
			 M262.76,313.67l19.64-12.16l5.14,4.09c-0.02-9.38,9.82-16.4,15.77-18.88c6.29-2.93,13.69-2.12,19.2,2.1
			c0.74-17.76,13.34-22.86,16.93-24.45c14.13-6.23,22.79,0.81,31.3,14.52l20.78,33.57l-21.41,13.25l-17.87-28.94
			c-4.88-7.85-8.6-10.87-14.44-7.24c-6.28,3.89-3.96,10.41,0.26,17.21l17.37,28.06l-21.41,13.25l-17.91-28.91
			c-5.16-8.36-8.36-10.98-14.44-7.24c-6.28,3.87-3.96,10.37,0.26,17.19l17.37,28.06l-21.41,13.23L262.76,313.67L262.76,313.67z
			 M505.45,241.98l-35.13-56.76l21.41-13.23l35.13,56.76L505.45,241.98L505.45,241.98z M455.91,161.93l21.41-13.23l9.93,16.03
			l-21.41,13.25L455.91,161.93z M503.13,164.92l19.55-12.1l6.28,4.24c0.85-10.41,7.55-16.14,15.55-19.58
			c12.53-5.36,22.72-0.09,31.36,13.87l21.04,34.01L575.5,198.6l-18.57-30.01c-3.57-5.75-7.94-9.78-14.09-5.97
			c-6.58,4.09-5.58,9.6-1.09,16.86l17.89,28.91l-21.41,13.25L503.13,164.92L503.13,164.92z M195.44,433.75
			c-57.68,35.69-109.84-47.59-52.16-83.29l26.2-16.03l13.49,21.81l-23.01,14.13c-28.7,17.69-2.21,56.8,24.67,39.89l23.03-14.13
			l13.49,21.81L195.44,433.75z M365.67,250l19.64-12.16l5.14,4.09c0-9.38,9.84-16.4,15.77-18.88c6.3-2.9,13.68-2.09,19.2,2.1
			c0.74-17.76,13.34-22.86,16.91-24.45c14.13-6.23,22.81,0.79,31.3,14.52l20.78,33.57l-21.41,13.23l-17.87-28.91
			c-4.86-7.85-8.57-10.87-14.46-7.24c-6.28,3.89-3.96,10.39,0.26,17.21l17.37,28.06l-21.41,13.23l-17.89-28.91
			c-5.16-8.33-8.36-10.96-14.46-7.24c-6.28,3.89-3.96,10.39,0.26,17.21l17.37,28.06l-21.37,13.23L365.67,250L365.67,250z"/>
	</g>
</g>
</svg>
