<?xml version="1.0" encoding="utf-8"?>
<!-- Generator: Adobe Adobe Illustrator 29.2.0, SVG Export Plug-In . SVG Version: 6.00 Build 0)  -->
<svg version="1.1" id="Layer_1" xmlns="http://www.w3.org/2000/svg" xmlns:xlink="http://www.w3.org/1999/xlink" x="0px" y="0px"
	 width="800px" height="800px" viewBox="0 0 800 800" style="enable-background:new 0 0 800 800;" xml:space="preserve">
<g>
	<path d="M78.51,344.47c-2.01,18.08-3.47,35.74-4.63,53.21c1.16,178.45,145.33,322.66,323.9,321.58
		c80.28,1.08,154.24-28.8,210.53-78.66l43.96,43.96c-70.55,61.39-160.97,95.09-254.49,94.86C187.8,780.27,16.89,610.75,16.04,400.78
		c0-1.03,0-2.06,0-3.09c-0.66-17.47,0.62-35.2,2.31-53.21L78.51,344.47L78.51,344.47z"/>
	<path d="M113.21,145.51c-38.6,42.42-67.08,93.05-83.29,148.07l74.03-74.03L231.2,344.47l-90.23,2.31
		c-2.97,16.81-4.51,33.83-4.63,50.9c-0.13,144.26,116.71,261.3,260.97,261.43c0.15,0,0.31,0,0.46,0
		c61.27,0.11,120.49-22.09,166.58-62.47l-41.64-41.64c-35.27,28.72-79.45,44.26-124.93,43.96
		c-110.52,0.64-200.64-88.44-201.28-198.96c0-0.77,0-1.55,0-2.32h168.89L113.21,145.51L113.21,145.51z M719.36,455.52
		c3.16-16.73,4.63-34.39,4.63-53.21c0-177.1-144.17-321.31-321.58-321.58c-78.01,0.27-153.41,28.13-212.85,78.66l-41.64-41.64
		c67.02-60.11,156.86-96.4,254.49-97.17c210.34,0.81,381.23,171.7,381.73,381.73c-0.26,17.83-1.81,35.61-4.63,53.21H719.36z"/>
	<path d="M686.97,656.8c37.17-42.8,65.55-93.47,80.97-148.07l-74.03,74.03L568.98,455.52h87.91c4.12-17.42,5.68-35.34,4.63-53.21
		c1.12-143.21-115.6-259.97-259.12-259.12c-61.67-0.76-121.58,20.58-168.89,60.15l41.64,41.64c36.76-27.62,81.27-43,127.24-43.96
		c110.55,0.96,200.58,91,201.28,201.28h-171.2L686.97,656.8L686.97,656.8z"/>
</g>
</svg>
