<?xml version="1.0" encoding="utf-8"?>
<!-- Generator: Adobe Adobe Illustrator 29.2.0, SVG Export Plug-In . SVG Version: 6.00 Build 0)  -->
<svg version="1.1" id="Layer_1" xmlns="http://www.w3.org/2000/svg" xmlns:xlink="http://www.w3.org/1999/xlink" x="0px" y="0px"
	 width="800px" height="800px" viewBox="0 0 800 800" style="enable-background:new 0 0 800 800;" xml:space="preserve">
<style type="text/css">
	.st0{fill:#3C76BB;}
	.st1{fill:#FDFDFE;}
	.st2{fill:#3975BA;}
	.st3{fill:#FDFEFE;}
	.st4{fill:#3B76BB;}
</style>
<g>
	<path class="st0" d="M732.71,192.35c7.5,13.62,15.18,26.55,21.55,40.09c11.46,24.39,20.8,49.55,27.02,75.93
		c4.16,17.65,7.5,35.42,9.21,53.35c3.09,32.41,2.88,64.8-2.62,97.16c-3.47,20.42-7.39,40.71-13.83,60.31
		c-4.18,12.72-8.8,25.39-14.35,37.71c-7.58,16.84-15.65,33.41-25.44,49c-17.98,28.64-39.02,54.89-63.61,78.23
		c-24.1,22.89-50.72,42.32-79.58,58.75c-29.1,16.57-60.04,29.22-92.29,37.28c-49.61,12.4-100.11,16.53-151.17,8.76
		c-31.56-4.8-62.2-12.5-91.98-24.15c-34.34-13.43-66.01-31.51-95.05-53.92c-24.84-19.17-46.93-41.29-66.74-65.9
		c-16.99-21.11-31.38-43.75-43.87-67.53c-12.29-23.38-21.7-48.18-28.51-73.72c-11.26-42.17-16-85.23-13.24-128.84
		c1.4-22,5.68-43.64,10.47-65.24c4.56-20.52,11.07-40.39,18.96-59.62c9.7-23.64,21.93-46.22,36.39-67.45
		c20.14-29.58,43.54-56.21,70.73-79.55c22.44-19.26,46.75-35.47,72.76-49.59c19.59-10.63,39.89-19.6,60.89-26.22
		C312.35,16.5,347.18,9.23,383.03,7.87c31.02-1.17,61.87,0.69,92.13,7.03c18.3,3.83,36.54,8.55,54.32,15.1
		c15.35,5.66,30.61,11.59,45.08,18.91c18.55,9.39,36.47,20.05,53.38,32.45c17.87,13.11,34.74,27.25,50.39,42.88
		C698.88,144.75,716.61,167.54,732.71,192.35z"/>
	<path class="st1" d="M261.35,53.49c28.81-12.02,58.24-18.96,88.52-23.44c35.71-5.28,70.89-4.46,106.56,0.96
		c24.26,3.69,47.68,9.85,70.7,17.52c15.66,5.22,30.49,13.08,45.43,20.3c20.79,10.06,39.94,23,57.94,37.25
		c16.76,13.26,32.36,27.96,46.75,44.04c16.52,18.45,31.48,38.02,43.95,59.2c9.56,16.23,18.67,32.91,25.04,50.94
		c3.95,11.19,8.15,22.22,11.52,33.65c15.86,53.88,20.76,108.14,11.13,163.97c-4.16,24.15-10,47.62-17.74,70.63
		c-6.36,18.93-15.36,36.89-25.15,54.37c-11.45,20.45-24.66,39.69-39.8,57.56c-17.23,20.34-36.53,38.44-57.48,55.04
		c-22.21,17.61-46.41,31.76-71.73,43.89c-15.59,7.47-31.74,14.07-48.86,18.05c-8.69,2.02-17.08,5.35-25.96,7.18
		c-25.07,5.15-50.32,8.72-75.87,9.64c-20.83,0.75-41.37-2.63-62.02-5.06c-24.7-2.9-48.24-9.83-71.52-17.56
		c-19.44-6.46-37.88-15.74-55.84-25.81c-26.83-15.04-51.47-33.12-73.72-54.23c-23.73-22.51-44.17-47.84-61.32-75.83
		c-15.63-25.5-28.8-52.22-37.4-80.75C27.64,459.2,20.76,402.57,30.91,344.2c4.24-24.39,9.77-48.26,17.69-71.49
		c6.61-19.4,15.82-37.89,25.86-55.88c14.99-26.86,33.15-51.49,54.24-73.73c22.47-23.69,47.76-44.13,75.71-61.3
		c16.22-9.96,33.48-17.77,50.34-26.4C256.57,54.48,258.79,54.34,261.35,53.49z"/>
	<path class="st2" d="M637.94,650.92c-11.37,14.43-25.03,25.57-38.93,36.43c-18.22,14.24-38.24,25.88-59.45,34.54
		c-28.6,11.68-57.92,21.74-89.25,24.07c-11.13,0.83-22.17,2.78-33.34,3.61c-21.94,1.63-43.57-0.98-65.35-3.01
		c-19.95-1.86-39.13-6.32-58.15-12.1c-2.16-0.66-4.88-0.84-5.06-3.99c1.28-1.71,2.83-1.32,4.37-0.77
		c34.26,12.14,69.78,14.83,105.42,10.84c18.6-2.08,37.08-8.65,47.53-26.6c6.5-11.17,5.68-25.39-3.9-35.14
		c-8.07-8.21-23.41-9.08-33.32-3.59c-10.66,5.9-19.03,14.86-29.37,21.2c-17.54,10.74-37.06,12.76-56.71,11.87
		c-23.31-1.05-46.11-5.32-68.61-12.52c-20.7-6.62-40.9-14.18-59.74-24.66c-21.95-12.21-41.51-28.01-59.19-45.94
		C116.44,606.43,101.43,584.94,89,562c-12.15-22.42-21.57-46.36-27.37-71.27c-10.51-45.11-15-90.53-7.89-136.98
		c3.14-20.53,8.39-40.43,12.55-60.64c0.33-1.59,0.48-3.83,2.87-4.47c2.62,0.75,1.99,2.68,1.37,4.38
		c-8.77,24.02-10.82,49.2-12.19,74.38c-1,18.38,0.44,37.02,7.99,53.91c8.14,18.21,20.36,32.92,45.09,26.83
		c8.59-2.11,15.25-10.06,16.44-18.09c1.57-10.54-0.86-20.17-7.91-28.8c-9.51-11.64-18.4-23.87-22.66-38.61
		c-4.32-14.98-4.3-30.34-4.01-45.82c0.42-23.12,6.37-45.29,13.1-66.86c7.65-24.51,18.1-48.1,32.86-69.78
		c10.77-15.82,22.46-30.67,35.89-44.03c12.97-12.89,27.57-24.02,42.96-34.05c14.16-9.23,28.91-17.54,44.52-23.74
		c18.56-7.37,37.46-13.7,57.12-18.27c22.97-5.35,46.11-7.52,69.39-9.61c18.2-1.63,36.12,1.19,54.16,2.82
		c20.48,1.85,39.97,7.84,59.81,12.37c3.23,0.74,6.54,1.69,9.05,4.73c-2.04,2.07-3.89,1.63-5.92,0.86c-30.89-11.8-63-14.22-95.6-12
		c-14.6,1-28.55,4.39-41.29,12.47c-14.79,9.38-21.93,22.74-17.26,40.47c2.03,7.7,12.14,14.84,20.5,15.94
		c13.5,1.78,23.78-4.48,33.02-12.61c22.48-19.8,49.04-23.68,77.62-22.21c29.74,1.53,57.97,9.4,85.51,19.63
		c29.71,11.03,56.38,27.3,80.45,48.38c21.88,19.16,39.72,41.34,54.61,65.89c10.35,17.05,19,35.11,24.78,54.46
		c2.1,7.02,5.05,13.8,7.04,20.97c13.34,47.98,17.7,96.36,10.8,146c-2.79,20.05-7.39,39.49-12.14,59.02
		c-0.33,1.34-0.36,1.34-3.85,4.15c-1.73-0.74-1.25-2.18-0.87-3.36c7.75-23.91,11.96-48.4,12.33-73.55
		c0.33-22.74-0.93-45-13.47-65.24c-9.43-15.21-22.7-22.34-41-17.6c-7.43,1.92-14.32,11.81-15.42,20.02
		c-1.84,13.74,4.32,24.39,12.7,33.81c20.02,22.49,23.25,49.24,22.1,77.79c-1.2,29.86-9.59,57.96-19.62,85.59
		c-8.85,24.35-20.8,47.28-37.37,67.55C646.03,641.45,642.94,646.6,637.94,650.92z"/>
	<path class="st3" d="M513.7,377.84c-16.67,2.3-29.5,10.94-40.94,21.47c-8.06,7.42-14.04,16.64-19.3,26.48
		c-10.17,19.02-12.15,39.42-11.56,60.25c0.66,23.06,7.94,43.73,23.57,61.33c16.53,18.62,37.17,25.35,61.15,21.87
		c28.92-4.2,46.07-23.06,52.63-49.77c5.48-22.32,4.41-45.68-16.1-61.73c-15.58-12.19-36.96-7.69-45.29,9.67
		c-3.03,6.33-3.42,15.62,2.23,22.79c3.46,4.39,6.38,9.2,9.98,13.46c4.24,5.02,5.86,10.3,2.15,16.01c-3.93,6.05-9.77,8.96-17.08,7.75
		c-15.51-2.56-28.4-15.99-32.15-31.93c-3.7-15.74-3.08-30.47,4.91-44.6c9.45-16.71,23.63-26.64,42.62-30.1
		c14.73-2.69,28.98-1.96,42.98,3.47c15.54,6.02,26.59,17.39,33.62,31.75c8.94,18.26,13.79,37.9,10.63,58.57
		c-4.71,30.79-19.58,55.21-45.92,72.37c-29.91,19.49-61.74,21.61-95.12,10.99c-33.98-10.81-54.64-35.34-67.3-67.09
		c-8.07-20.25-8.67-41.72-6.87-63.55c2.48-30.04,14.8-55.17,34.68-76.99c10.01-10.98,21.89-19.81,34.97-26.93
		c1.83-0.99,4.11-1.28,4.73-3.96c-3.17-3.92-6.39-7.89-9.84-12.16c-31.8,22.44-64.34,43.5-98.58,61.99
		c-3.3,29.68-4.62,59.82-11.85,89.07c-3.98,16.12-10.45,31.5-18.85,45.88c-7.08,12.12-15.36,23.45-25.76,33.02
		c-15.83,14.56-33.7,24.84-55.78,26.18c-15.85,0.96-31.54,0.75-45.31-8.54c-20.97-14.14-28.58-34.87-26.28-59.09
		c3.01-31.68,20.25-55.41,43.66-75.93c20.34-17.83,43.73-30.72,66.68-44.36c12.06-7.17,25.08-12.7,37.58-19.13
		c2.03-1.05,4.32-2.42,4.88-4.96c1.19-5.39,2.18-10.82,3.4-17c-6.43,1.27-9.85,6.06-15.05,7.93c-13.32,4.79-26.49,7.14-40.46,3.61
		c-15.81-4-25.06-15.05-30.85-29.21c-2.41-5.89-4.77-9.74-11.66-10.64c-38.58-5.07-54.51-50.32-42.29-80.89
		c2.67-6.68,4.88-13.47,11.02-18.42c5.55-4.48,11.66-5.22,16.87-2.21c5.65,3.28,4.18,9.83,2.32,15.27
		c-5.43,15.84-8.13,31.51,1.27,46.96c3.85,6.33,8.76,10.55,17.21,9.95c1.21-10.3,2.99-20.45,5.04-30.56
		c2.91-14.34,8.28-27.69,14.76-40.67c6.56-13.13,14.7-25.25,25.34-35.36c17.93-17.02,37.92-27.65,63.62-18.25
		c13.34,4.87,20.07,17.71,19.1,34.62c-1.28,22.5-10.19,42.45-22.8,60.87c-14.45,21.12-33.11,37.71-54.65,51.27
		c-4.28,2.7-9.81,2.64-13.63,6.35c2.29,12.19,11.6,18.48,23.34,15.28c15.54-4.24,28.6-12.5,38.29-25.53
		c5.31-7.14,4.8-16.5,8.91-24.35c6.47-12.35,13.14-23.97,26.38-30.43c8.94-4.36,22.04-0.98,21.06,13.96
		c-0.87,13.29-7.76,23.78-15.98,32.7c-12.87,13.96-19.41,29.47-18.46,49.24c9.73-3.43,17.61-9.68,26.04-14.57
		c14.27-8.27,27.82-17.79,41.61-26.88c5.68-3.74,11.2-7.71,16.77-11.61c1.72-1.2,2.04-2.78,1.68-4.88
		c-4.6-27.03-0.03-53.07,11.03-77.6c8.65-19.17,21.16-36.17,40.76-45.82c14.61-7.19,30.09-9.15,45.27-1.4
		c14.65,7.49,19.39,23,16.47,42.81c-3.92,26.5-20.97,44.83-38.97,62.48c-11.07,10.85-23.19,20.54-35.77,30.28
		c2.54,6.32,6.25,11.66,11.13,16.15c2.4,2.2,5.17,3.01,8.79,2.14c13.3-3.21,26.75-3.85,40.28-1.25c13.87,2.66,20.7,15.23,13.04,25.3
		c-4.48,5.9-12.16,7.12-19.19,8.22C537.13,381.02,525.71,380.05,513.7,377.84z"/>
	<path class="st2" d="M220.87,532.22c7.22-23.8,21.91-41.44,40.03-56.84c20.89-17.75,43.65-32.5,68.26-44.46
		c0.92-0.45,2-0.57,3.05-0.85c1.5,2.78,0.44,5.31-0.04,7.83c-4.19,22.06-7.8,44.31-15.63,65.43c-8.42,22.73-19.55,44.12-40.37,58.13
		c-11.5,7.74-24.86,10.6-38.66,7.64c-10.67-2.29-16.47-10.2-16.67-21.01C220.74,543.04,220.84,537.98,220.87,532.22z"/>
	<path class="st4" d="M326.2,273.36c-12.14,15.44-24.22,30.12-42.28,39.78c-2.41-13.17,2.24-24.3,6.21-34.74
		c6.58-17.3,14.21-34.41,26.66-48.74c4.01-4.61,8.4-8.53,13.92-11.03c8.89-4.03,16.1,0.73,15.97,10.53
		c-0.12,9.18-3.41,17.52-7.97,25.28C334.98,260.78,330.63,266.76,326.2,273.36z"/>
	<path class="st4" d="M528.15,254.46c-11.21,15.97-24.1,29.57-39.44,42.37c-1.12-7.21-0.79-12.89,0.75-18.55
		c5.41-19.91,11.94-39.18,27.26-54.19c3.23-3.16,7.08-4.42,10.82-6.14c4.33-2,7.88,0.9,10.75,3.41c3.29,2.87,3.33,7.1,1.77,11.11
		C537.09,240.11,533.35,247.36,528.15,254.46z"/>
</g>
</svg>
